<svg width="56" height="56" viewBox="0 0 56 56" fill="none" xmlns="http://www.w3.org/2000/svg">
<path d="M35.2378 50.4358H4.92338C4.14983 50.4358 3.40797 50.1372 2.86099 49.6059C2.314 49.0745 2.00671 48.3539 2.00671 47.6024V8.467C2.00671 7.71555 2.314 6.99488 2.86099 6.46353C3.40797 5.93218 4.14983 5.63367 4.92338 5.63367H9.23275M16.9444 5.63367H33.9194M40.5432 5.63367H45.2113C45.9848 5.63367 46.7267 5.93218 47.2737 6.46353C47.8207 6.99488 48.128 7.71555 48.128 8.467V34.8425" stroke="#2B8E00" stroke-width="3"/>
<path d="M20.4545 21.3289H29.677V30.2879H20.4545V21.3289ZM34.4939 21.3289H43.7164V30.2879H34.4939V21.3289ZM6.41809 21.3289H15.6406V30.2879H6.41809V21.3289ZM20.4545 35.2661H29.677V44.2251H20.4545V35.2661ZM6.41809 35.2661H15.6406V44.2251H6.41809V35.2661ZM11.127 1.79166H14.6314C15.0182 1.79166 15.3891 1.94091 15.6626 2.20659C15.9361 2.47227 16.0898 2.8326 16.0898 3.20832V10.3526C16.0898 10.7283 15.9361 11.0886 15.6626 11.3543C15.3891 11.62 15.0182 11.7692 14.6314 11.7692H11.127C10.7403 11.7692 10.3693 11.62 10.0959 11.3543C9.82236 11.0886 9.66872 10.7283 9.66872 10.3526V3.20832C9.66872 2.8326 9.82236 2.47227 10.0959 2.20659C10.3693 1.94091 10.7403 1.79166 11.127 1.79166V1.79166ZM35.5016 1.79166H39.0045C39.3913 1.79166 39.7623 1.94091 40.0357 2.20659C40.3092 2.47227 40.4629 2.8326 40.4629 3.20832V10.3526C40.4629 10.7283 40.3092 11.0886 40.0357 11.3543C39.7623 11.62 39.3913 11.7692 39.0045 11.7692H35.5016C35.1149 11.7692 34.7439 11.62 34.4704 11.3543C34.1969 11.0886 34.0433 10.7283 34.0433 10.3526V3.20832C34.0433 2.8326 34.1969 2.47227 34.4704 2.20659C34.7439 1.94091 35.1149 1.79166 35.5016 1.79166V1.79166Z" stroke="#2B8E00" stroke-width="3"/>
<path d="M43.715 54.2083C49.3915 54.2083 53.9933 49.7381 53.9933 44.2237C53.9933 38.7093 49.3915 34.239 43.715 34.239C38.0384 34.239 33.4366 38.7093 33.4366 44.2237C33.4366 49.7381 38.0384 54.2083 43.715 54.2083Z" stroke="#2B8E00" stroke-width="3"/>
<path d="M48.1396 50.6341L43.5881 47.5146L38.8062 50.2912L40.4542 45.1204L36.2571 41.5617L41.8279 41.4867L44.0154 36.5085L45.8092 41.6326L51.3596 42.1142L46.8971 45.3584L48.1396 50.6341Z" stroke="#2B8E00" stroke-width="3"/>
<path d="M2.33911 17.0067H48.1381" stroke="#2B8E00" stroke-width="3" stroke-miterlimit="5.571"/>
</svg>
