<svg width="83" height="22" viewBox="0 0 83 22" fill="none" xmlns="http://www.w3.org/2000/svg">
<path d="M0.0588379 5C0.0588379 2.23858 2.29741 0 5.05884 0L82.6471 0L82.6471 1.33333C82.6471 12.379 73.6928 21.3333 62.6471 21.3333L0.0588379 21.3333L0.0588379 5Z" fill="#B6165B"/>
<path d="M25.2574 7.247C25.0081 7.247 24.8064 7.17 24.6524 7.016C24.5058 6.862 24.4324 6.66033 24.4324 6.411C24.4324 6.169 24.5058 5.97467 24.6524 5.828C24.8064 5.68133 25.0081 5.608 25.2574 5.608C25.4994 5.608 25.6938 5.68133 25.8404 5.828C25.9871 5.97467 26.0604 6.169 26.0604 6.411C26.0604 6.66767 25.9871 6.873 25.8404 7.027C25.6938 7.17367 25.4994 7.247 25.2574 7.247ZM27.0834 7.247C26.8414 7.247 26.6434 7.17 26.4894 7.016C26.3428 6.862 26.2694 6.66033 26.2694 6.411C26.2694 6.169 26.3428 5.97467 26.4894 5.828C26.6434 5.68133 26.8414 5.608 27.0834 5.608C27.3254 5.608 27.5198 5.68133 27.6664 5.828C27.8204 5.97467 27.8974 6.169 27.8974 6.411C27.8974 6.66767 27.8241 6.873 27.6774 7.027C27.5308 7.17367 27.3328 7.247 27.0834 7.247ZM28.3154 13C28.1468 13.6967 27.7398 14.2283 27.0944 14.595C26.5078 14.925 25.7561 15.09 24.8394 15.09C23.5854 15.09 22.6468 14.7343 22.0234 14.023C21.5541 13.495 21.3194 12.846 21.3194 12.076C21.3194 11.5187 21.4478 11.0237 21.7044 10.591L23.2224 10.272C22.9511 10.756 22.8154 11.2693 22.8154 11.812C22.8154 12.3693 22.9878 12.7983 23.3324 13.099C23.6844 13.3997 24.1868 13.55 24.8394 13.55C25.7634 13.55 26.3464 13.3447 26.5884 12.934L26.4234 12.901C25.6534 12.8057 25.0558 12.5013 24.6304 11.988C24.2711 11.5553 24.0914 11.0347 24.0914 10.426C24.0914 9.60467 24.3151 8.95933 24.7624 8.49C25.1658 8.06467 25.6938 7.852 26.3464 7.852C27.0138 7.852 27.5344 8.06467 27.9084 8.49C28.2384 8.864 28.4034 9.34433 28.4034 9.931L28.4034 11.46L29.7014 11.46L29.7014 13L28.3154 13ZM26.8084 11.416L26.8084 9.887C26.8084 9.52767 26.6544 9.348 26.3464 9.348C25.8918 9.348 25.6644 9.689 25.6644 10.371C25.6644 10.9577 25.9504 11.2913 26.5224 11.372L26.8084 11.416ZM32.877 11.46L33.944 11.46L33.944 13L32.723 13C32.1583 13 31.7037 12.8533 31.359 12.56C30.9557 12.8533 30.468 13 29.896 13L29.104 13L29.104 11.46L29.819 11.46C30.127 11.46 30.3397 11.3977 30.457 11.273C30.5817 11.141 30.644 10.9137 30.644 10.591L30.644 6.752L32.239 5.905L32.239 10.822C32.239 11.0567 32.283 11.2217 32.371 11.317C32.4663 11.4123 32.635 11.46 32.877 11.46ZM37.5489 7.06C37.2996 7.06 37.0979 6.98667 36.9439 6.84C36.7972 6.686 36.7239 6.48433 36.7239 6.235C36.7239 5.98567 36.7972 5.78767 36.9439 5.641C37.0979 5.49433 37.2996 5.421 37.5489 5.421C37.7909 5.421 37.9852 5.49433 38.1319 5.641C38.2786 5.78767 38.3519 5.98567 38.3519 6.235C38.3519 6.48433 38.2786 6.686 38.1319 6.84C37.9852 6.98667 37.7909 7.06 37.5489 7.06ZM41.7729 13L38.6489 13C38.2749 13 37.9119 12.9413 37.5599 12.824C37.2079 12.9413 36.8449 13 36.4709 13L33.3579 13L33.3579 11.46L35.6239 11.46C35.3086 11.108 35.0006 10.679 34.6999 10.173L34.6999 9.59C35.0372 9.06933 35.4662 8.65133 35.9869 8.336C36.5149 8.01333 37.0392 7.852 37.5599 7.852C38.0659 7.852 38.5829 8.017 39.1109 8.347C39.6462 8.66967 40.0862 9.09133 40.4309 9.612L40.4309 10.173C40.1229 10.679 39.8149 11.108 39.5069 11.46L41.7619 11.46L41.7729 13ZM38.7919 9.898C38.3812 9.524 37.9706 9.337 37.5599 9.337C37.1052 9.337 36.6946 9.52033 36.3279 9.887C36.7459 10.525 37.1566 10.9503 37.5599 11.163C37.9706 10.943 38.3812 10.5213 38.7919 9.898ZM42.905 9.931C42.905 9.25633 43.114 8.72833 43.532 8.347C43.8986 8.017 44.3753 7.852 44.962 7.852C45.7026 7.852 46.2783 8.12333 46.689 8.666C47.041 9.128 47.217 9.71467 47.217 10.426C47.217 11.24 46.9933 11.8853 46.546 12.362C46.1573 12.7873 45.655 13 45.039 13C44.4596 13 43.9903 12.89 43.631 12.67C43.301 12.89 42.8976 13 42.421 13L41.189 13L41.189 11.46L42.267 11.46C42.5016 11.46 42.6666 11.4123 42.762 11.317C42.8573 11.2217 42.905 11.0567 42.905 10.822L42.905 9.931ZM44.5 11.031C44.5 11.317 44.654 11.46 44.962 11.46C45.4166 11.46 45.644 11.097 45.644 10.371C45.644 9.689 45.4166 9.348 44.962 9.348C44.654 9.348 44.5 9.52767 44.5 9.887L44.5 11.031Z" fill="white"/>
</svg>
