<svg width="40" height="50" viewBox="0 0 40 50" fill="none" xmlns="http://www.w3.org/2000/svg">
<path d="M28.1984 31.3086L20 40.625L11.8016 31.3086C5.65703 31.6113 0.75 37.3242 0.75 44.375V45.3125C0.75 47.9004 2.59766 50 4.875 50H35.125C37.4023 50 39.25 47.9004 39.25 45.3125V44.375C39.25 37.3242 34.343 31.6113 28.1984 31.3086V31.3086ZM1.91875 7.79297L2.46875 7.93945V13.6426C1.86719 14.0527 1.4375 14.7656 1.4375 15.625C1.4375 16.4453 1.83281 17.1289 2.39141 17.5488L1.05078 23.6328C0.904687 24.3066 1.23125 25 1.70391 25H5.29609C5.76875 25 6.09531 24.3066 5.94922 23.6328L4.60859 17.5488C5.16719 17.1289 5.5625 16.4453 5.5625 15.625C5.5625 14.7656 5.13281 14.0527 4.53125 13.6426V8.50586L10.2031 10.0586C9.46406 11.7383 9 13.6133 9 15.625C9 22.5293 13.9242 28.125 20 28.125C26.0758 28.125 31 22.5293 31 15.625C31 13.6133 30.5445 11.7383 29.7969 10.0586L38.0727 7.79297C39.6367 7.36328 39.6367 5.14648 38.0727 4.7168L21.7102 0.224609C20.593 -0.078125 19.4156 -0.078125 18.2984 0.224609L1.91875 4.70703C0.363281 5.13672 0.363281 7.36328 1.91875 7.79297V7.79297Z" fill="#2B8E00"/>
</svg>
