<svg width="83" height="23" viewBox="0 0 83 23" fill="none" xmlns="http://www.w3.org/2000/svg">
<path d="M0.0588379 5C0.0588379 2.23858 2.29741 0 5.05884 0L82.6471 0L82.6471 1.33333C82.6471 12.379 73.6928 21.3333 62.6471 21.3333L0.0588379 21.3333L0.0588379 5Z" fill="#2B8E00"/>
<path d="M29.1609 16.498C28.5009 16.916 27.7602 17.125 26.9389 17.125C26.0442 17.125 25.3255 16.8427 24.7829 16.278C24.2622 15.7427 24.0019 15.013 24.0019 14.089C24.0019 13.121 24.2769 12.3803 24.8269 11.867C25.2229 11.4857 25.9342 11.1703 26.9609 10.921C27.5915 10.7597 28.0205 10.613 28.2479 10.481C27.7859 9.711 27.2322 9.326 26.5869 9.326C26.0295 9.326 25.3805 9.645 24.6399 10.283L24.6399 8.897C25.2632 8.20033 25.9709 7.852 26.7629 7.852H26.7849C27.3715 7.852 27.9399 8.06467 28.4899 8.49C29.0399 8.91533 29.5239 9.513 29.9419 10.283L29.9419 10.866C29.7365 11.2547 29.4615 11.5553 29.1169 11.768C28.7795 11.9733 28.2405 12.164 27.4999 12.34C26.7519 12.5233 26.2532 12.7213 26.0039 12.934C25.6959 13.22 25.5419 13.6087 25.5419 14.1C25.5419 15.09 26.0589 15.585 27.0929 15.585C27.7895 15.585 28.4789 15.3833 29.1609 14.98L29.1609 16.498ZM33.5626 13C32.8879 13 32.3599 12.7837 31.9786 12.351C31.6486 11.9697 31.4836 11.482 31.4836 10.888L31.4836 6.752L33.0786 5.905L33.0786 10.822C33.0786 11.0567 33.1263 11.2217 33.2216 11.317C33.3169 11.4123 33.4819 11.46 33.7166 11.46L34.7946 11.46L34.7946 13L33.5626 13ZM34.2034 13L34.2034 11.46L36.0624 11.46L36.0624 13L34.2034 13ZM36.3948 7.247C36.1454 7.247 35.9438 7.17 35.7898 7.016C35.6431 6.862 35.5698 6.66033 35.5698 6.411C35.5698 6.169 35.6431 5.97467 35.7898 5.828C35.9438 5.674 36.1454 5.597 36.3948 5.597C36.6368 5.597 36.8311 5.67033 36.9778 5.817C37.1244 5.96367 37.1978 6.16167 37.1978 6.411C37.1978 6.66767 37.1244 6.873 36.9778 7.027C36.8311 7.17367 36.6368 7.247 36.3948 7.247ZM38.2318 7.247C37.9824 7.247 37.7808 7.17 37.6268 7.016C37.4801 6.862 37.4068 6.66033 37.4068 6.411C37.4068 6.169 37.4801 5.97467 37.6268 5.828C37.7808 5.674 37.9824 5.597 38.2318 5.597C38.4738 5.597 38.6681 5.67033 38.8148 5.817C38.9614 5.96367 39.0348 6.16167 39.0348 6.411C39.0348 6.66767 38.9614 6.873 38.8148 7.027C38.6681 7.17367 38.4738 7.247 38.2318 7.247ZM39.4308 11.46L40.4978 11.46L40.4978 13L39.2768 13C38.7634 13 38.3381 12.8753 38.0008 12.626C37.6488 12.8753 37.2198 13 36.7138 13L35.4818 13L35.4818 11.46L36.5598 11.46C36.7944 11.46 36.9594 11.4123 37.0548 11.317C37.1501 11.2217 37.1978 11.0567 37.1978 10.822L37.1978 8.897L38.7928 8.05L38.7928 10.822C38.7928 11.0567 38.8368 11.2217 38.9248 11.317C39.0201 11.4123 39.1888 11.46 39.4308 11.46ZM41.6343 9.931C41.6343 9.25633 41.8433 8.72833 42.2613 8.347C42.6279 8.017 43.1046 7.852 43.6913 7.852C44.4319 7.852 45.0076 8.12333 45.4183 8.666C45.7703 9.128 45.9463 9.71467 45.9463 10.426C45.9463 11.24 45.7226 11.8853 45.2753 12.362C44.8866 12.7873 44.3843 13 43.7683 13C43.1889 13 42.7196 12.89 42.3603 12.67C42.0303 12.89 41.6269 13 41.1503 13L39.9183 13L39.9183 11.46L40.9963 11.46C41.2309 11.46 41.3959 11.4123 41.4913 11.317C41.5866 11.2217 41.6343 11.0567 41.6343 10.822L41.6343 9.931ZM43.2293 11.031C43.2293 11.317 43.3833 11.46 43.6913 11.46C44.1459 11.46 44.3733 11.097 44.3733 10.371C44.3733 9.689 44.1459 9.348 43.6913 9.348C43.3833 9.348 43.2293 9.52767 43.2293 9.887L43.2293 11.031Z" fill="white"/>
</svg>
