<svg width="65" height="54" viewBox="0 0 65 54" fill="none" xmlns="http://www.w3.org/2000/svg">
<path d="M45.2807 44.442L43.5474 32.913C43.3017 31.28 42.3464 29.7778 40.8611 28.6889C39.3759 27.6 37.4629 26.9994 35.4819 27H29.5128C27.5328 27.0005 25.6211 27.6016 24.137 28.6904C22.6528 29.7792 21.6983 31.2808 21.4528 32.913L19.7167 44.442C19.6215 45.0754 19.6895 45.7184 19.9163 46.3283C20.1431 46.9382 20.5235 47.501 21.0322 47.9794C21.5409 48.4578 22.1663 48.8408 22.8669 49.1029C23.5674 49.3651 24.3271 49.5005 25.0955 49.5H39.9046C40.6728 49.5001 41.4322 49.3646 42.1324 49.1022C42.8326 48.8399 43.4577 48.4569 43.9661 47.9785C44.4746 47.5002 44.8547 46.9375 45.0813 46.3278C45.308 45.718 45.3759 45.0752 45.2807 44.442V44.442Z" stroke="#2B8E00" stroke-width="4" stroke-linecap="round" stroke-linejoin="round"/>
<path d="M32.5 18C36.9873 18 40.625 14.9779 40.625 11.25C40.625 7.52208 36.9873 4.5 32.5 4.5C28.0127 4.5 24.375 7.52208 24.375 11.25C24.375 14.9779 28.0127 18 32.5 18Z" stroke="#2B8E00" stroke-width="4"/>
<path d="M10.8334 24.75C13.825 24.75 16.2501 22.7353 16.2501 20.25C16.2501 17.7647 13.825 15.75 10.8334 15.75C7.84187 15.75 5.41675 17.7647 5.41675 20.25C5.41675 22.7353 7.84187 24.75 10.8334 24.75Z" stroke="#2B8E00" stroke-width="4"/>
<path d="M54.1667 24.75C57.1582 24.75 59.5833 22.7353 59.5833 20.25C59.5833 17.7647 57.1582 15.75 54.1667 15.75C51.1751 15.75 48.75 17.7647 48.75 20.25C48.75 22.7353 51.1751 24.75 54.1667 24.75Z" stroke="#2B8E00" stroke-width="4"/>
<path d="M10.8334 31.5H10.0046C8.7224 31.4999 7.48169 31.8776 6.50323 32.5661C5.52478 33.2545 4.87202 34.209 4.66109 35.2597L3.75922 39.7597C3.62979 40.4045 3.67098 41.0649 3.87992 41.6951C4.08887 42.3252 4.46054 42.91 4.9691 43.4087C5.47766 43.9074 6.1109 44.3082 6.82476 44.583C7.53862 44.8578 8.31598 45.0001 9.10276 45H18.9584M54.1667 31.5H54.9955C56.2777 31.4999 57.5184 31.8776 58.4969 32.5661C59.4753 33.2545 60.1281 34.209 60.339 35.2597L61.2409 39.7597C61.3703 40.4045 61.3291 41.0649 61.1202 41.6951C60.9112 42.3252 60.5396 42.91 60.031 43.4087C59.5224 43.9074 58.8892 44.3082 58.1753 44.583C57.4615 44.8578 56.6841 45.0001 55.8973 45H46.0417" stroke="#2B8E00" stroke-width="4" stroke-linecap="round" stroke-linejoin="round"/>
</svg>
