<svg width="774" height="167" viewBox="0 0 774 167" fill="none" xmlns="http://www.w3.org/2000/svg">
<path fill-rule="evenodd" clip-rule="evenodd" d="M45.112 42.2711C50.4298 49.8929 52.9739 60.289 51.3877 71.2308C49.8014 82.1727 44.4097 91.4183 37.1464 97.2162C41.6572 103.681 48.1635 108.15 55.8372 109.263C72.5576 111.687 88.4888 97.2577 91.4206 77.0345C94.3525 56.8114 83.1746 38.4523 66.4542 36.0283C58.7805 34.9158 51.273 37.3531 45.112 42.2711Z" fill="#C27930"/>
<path d="M187.928 113V44.84H192.824V113H187.928ZM297.013 113H292.213V85.16C292.213 78.824 291.221 74.152 289.237 71.144C287.317 68.136 284.341 66.632 280.309 66.632C276.213 66.632 272.565 68.104 269.365 71.048C266.229 73.928 264.021 77.64 262.741 82.184V113H257.941V85.16C257.941 78.76 256.981 74.088 255.061 71.144C253.141 68.136 250.165 66.632 246.133 66.632C242.037 66.632 238.389 68.072 235.189 70.952C232.053 73.768 229.813 77.48 228.469 82.088V113H223.669V63.08H228.181V74.984C230.293 70.888 233.013 67.752 236.341 65.576C239.669 63.336 243.317 62.216 247.285 62.216C251.445 62.216 254.837 63.464 257.461 65.96C260.149 68.392 261.749 71.656 262.261 75.752C264.629 71.272 267.445 67.912 270.709 65.672C273.973 63.368 277.685 62.216 281.845 62.216C284.597 62.216 286.901 62.728 288.757 63.752C290.677 64.712 292.245 66.152 293.461 68.072C294.741 69.928 295.637 72.232 296.149 74.984C296.725 77.736 297.013 80.84 297.013 84.296V113ZM346.841 113.96C343.321 113.96 340.057 113.288 337.049 111.944C334.105 110.6 331.545 108.744 329.369 106.376C327.193 103.944 325.497 101.16 324.281 98.024C323.065 94.888 322.457 91.592 322.457 88.136C322.457 84.616 323.065 81.32 324.281 78.248C325.497 75.112 327.193 72.36 329.369 69.992C331.609 67.56 334.201 65.672 337.145 64.328C340.153 62.92 343.385 62.216 346.841 62.216C350.297 62.216 353.497 62.92 356.441 64.328C359.385 65.672 361.977 67.56 364.217 69.992C366.457 72.36 368.185 75.112 369.401 78.248C370.617 81.32 371.225 84.616 371.225 88.136C371.225 91.592 370.617 94.888 369.401 98.024C368.185 101.16 366.457 103.944 364.217 106.376C362.041 108.744 359.449 110.6 356.441 111.944C353.497 113.288 350.297 113.96 346.841 113.96ZM327.257 88.328C327.257 92.232 328.121 95.816 329.849 99.08C331.641 102.28 334.009 104.84 336.953 106.76C339.897 108.68 343.161 109.64 346.745 109.64C350.329 109.64 353.593 108.68 356.537 106.76C359.545 104.776 361.913 102.152 363.641 98.888C365.433 95.56 366.329 91.944 366.329 88.04C366.329 84.136 365.433 80.552 363.641 77.288C361.913 74.024 359.545 71.432 356.537 69.512C353.593 67.528 350.361 66.536 346.841 66.536C343.257 66.536 339.993 67.528 337.049 69.512C334.105 71.496 331.737 74.12 329.945 77.384C328.153 80.648 327.257 84.296 327.257 88.328ZM437.925 113H433.125V85.16C433.125 78.76 432.197 74.088 430.341 71.144C428.549 68.136 425.669 66.632 421.701 66.632C418.885 66.632 416.101 67.304 413.349 68.648C410.661 69.992 408.293 71.848 406.245 74.216C404.261 76.52 402.821 79.144 401.925 82.088V113H397.125V63.08H401.637V74.984C402.981 72.424 404.773 70.216 407.013 68.36C409.253 66.44 411.749 64.936 414.501 63.848C417.253 62.76 420.101 62.216 423.045 62.216C425.797 62.216 428.101 62.728 429.957 63.752C431.877 64.712 433.413 66.12 434.565 67.976C435.781 69.832 436.645 72.136 437.157 74.888C437.669 77.64 437.925 80.776 437.925 84.296V113ZM490.454 67.4C485.974 67.528 482.038 68.872 478.646 71.432C475.318 73.928 472.982 77.384 471.638 81.8V113H466.838V63.08H471.446V75.368C473.174 71.848 475.478 69 478.358 66.824C481.238 64.584 484.278 63.304 487.478 62.984C488.118 62.92 488.694 62.888 489.206 62.888C489.718 62.888 490.134 62.888 490.454 62.888V67.4ZM533.204 113.96C529.684 113.96 526.42 113.288 523.412 111.944C520.404 110.536 517.78 108.648 515.54 106.28C513.364 103.848 511.636 101.064 510.356 97.928C509.14 94.728 508.532 91.368 508.532 87.848C508.532 83.112 509.588 78.824 511.7 74.984C513.812 71.144 516.724 68.072 520.436 65.768C524.148 63.4 528.308 62.216 532.916 62.216C537.652 62.216 541.844 63.4 545.492 65.768C549.14 68.136 552.02 71.272 554.132 75.176C556.308 79.016 557.396 83.24 557.396 87.848C557.396 88.232 557.396 88.616 557.396 89C557.396 89.384 557.364 89.704 557.3 89.96H513.524C513.78 93.736 514.836 97.16 516.692 100.232C518.548 103.304 520.916 105.736 523.796 107.528C526.74 109.256 529.94 110.12 533.396 110.12C536.852 110.12 540.116 109.224 543.188 107.432C546.26 105.64 548.404 103.336 549.62 100.52L553.844 101.672C552.884 104.04 551.348 106.152 549.236 108.008C547.188 109.864 544.756 111.336 541.94 112.424C539.188 113.448 536.276 113.96 533.204 113.96ZM513.332 86.216H552.788C552.532 82.312 551.508 78.856 549.716 75.848C547.924 72.84 545.556 70.472 542.612 68.744C539.732 67.016 536.532 66.152 533.012 66.152C529.492 66.152 526.292 67.016 523.412 68.744C520.532 70.472 518.196 72.84 516.404 75.848C514.612 78.856 513.588 82.312 513.332 86.216Z" fill="#272726"/>
<mask id="mask0_5_78" style="mask-type:alpha" maskUnits="userSpaceOnUse" x="36" y="37" width="100" height="89">
<ellipse rx="47.6429" ry="46.5356" transform="matrix(0.884316 -0.466889 0.566556 0.824023 86.1247 81.5)" fill="#272726"/>
</mask>
<g mask="url(#mask0_5_78)">
<ellipse rx="47.6429" ry="46.5356" transform="matrix(0.884316 -0.466889 0.566556 0.824023 146.312 49.7229)" fill="#C27930"/>
<ellipse rx="28.3589" ry="27.6906" transform="matrix(0.884316 -0.466889 0.566556 0.824023 112.591 120.657)" fill="#E8AA6D"/>
</g>
<path fill-rule="evenodd" clip-rule="evenodd" d="M26.9104 95.574C21.5927 87.9522 19.0485 77.5561 20.6348 66.6142C22.221 55.6724 27.6128 46.4267 34.876 40.6289C40.1937 48.2506 42.7379 58.6468 41.1517 69.5886C39.5654 80.5305 34.1737 89.7761 26.9104 95.574Z" fill="#D4C0B4"/>
</svg>
